<svg width="31" height="39" viewBox="0 0 31 39" fill="none" xmlns="http://www.w3.org/2000/svg">
<path d="M27.5 38H3.5C1.84315 38 0.5 36.6569 0.5 35V12.9802C0.5 12.0471 0.934185 11.1671 1.6747 10.5994L13.6747 1.39939C14.7515 0.573818 16.2485 0.573817 17.3253 1.39939L29.3253 10.5994C30.0658 11.1671 30.5 12.0471 30.5 12.9802V35C30.5 36.6569 29.1569 38 27.5 38Z" stroke="#6D6C6C"/>
<path d="M11 37V23C11 22.4477 11.4477 22 12 22H19.5C20.0523 22 20.5 22.4477 20.5 23V37C20.5 37.5523 20.0523 38 19.5 38H12C11.4477 38 11 37.5523 11 37Z" stroke="#6D6C6C"/>
</svg>
