<svg width="39" height="38" viewBox="0 0 39 38" fill="none" xmlns="http://www.w3.org/2000/svg">
<path d="M17.8191 1.54498C18.2627 0.151806 20.2348 0.151803 20.6785 1.54498L23.8289 11.4415C24.1591 12.4786 25.1232 13.1827 26.2117 13.1827H36.4939C37.9394 13.1828 38.5484 15.0267 37.3875 15.8878L28.9998 22.1065C28.1412 22.743 27.7819 23.8547 28.1062 24.8731L31.2937 34.8829C31.7351 36.27 30.14 37.4101 28.9705 36.543L20.738 30.4385C19.8537 29.7829 18.6439 29.7829 17.7595 30.4385L9.5271 36.543C8.3576 37.4101 6.76245 36.27 7.20386 34.8829L10.3914 24.8731C10.7156 23.8547 10.3564 22.743 9.4978 22.1065L1.11011 15.8878C-0.0508638 15.0267 0.558153 13.1828 2.00366 13.1827H12.2859C13.3744 13.1827 14.3384 12.4786 14.6687 11.4415L17.8191 1.54498Z" stroke="#3FCCA0"/>
</svg>
