<svg width="36" height="34" viewBox="0 0 36 34" fill="none" xmlns="http://www.w3.org/2000/svg">
<path d="M16.1881 1.52707C16.643 0.157518 18.5808 0.157521 19.0357 1.52707L21.8463 9.98996C22.1858 11.0121 23.1422 11.7019 24.2193 11.7019H33.2203C34.6809 11.7021 35.2797 13.578 34.0894 14.4245L26.8834 19.5466C25.9879 20.183 25.6124 21.3292 25.9586 22.3718L28.7291 30.7126C29.1859 32.0887 27.618 33.248 26.4361 32.4079L19.0601 27.1648C18.1931 26.5487 17.0307 26.5487 16.1636 27.1648L8.78767 32.4079C7.60575 33.248 6.03783 32.0887 6.4947 30.7126L9.26521 22.3718C9.61132 21.3292 9.23584 20.183 8.3404 19.5466L1.13435 14.4245C-0.0559143 13.578 0.542827 11.7021 2.00349 11.7019H11.0045C12.0815 11.7019 13.038 11.0121 13.3775 9.98996L16.1881 1.52707Z" stroke="#6D6C6C"/>
</svg>
