<svg width="36" height="34" viewBox="0 0 36 34" fill="none" xmlns="http://www.w3.org/2000/svg">
<path d="M16.1881 1.5271C16.643 0.157549 18.5809 0.157551 19.0358 1.5271L21.8463 9.98999C22.1858 11.0121 23.1423 11.7019 24.2194 11.7019H33.2203C34.681 11.7022 35.2797 13.5781 34.0895 14.4246L26.8834 19.5466C25.988 20.1831 25.6125 21.3292 25.9586 22.3718L28.7291 30.7126C29.186 32.0887 27.6181 33.248 26.4362 32.408L19.0602 27.1648C18.1931 26.5487 17.0308 26.5487 16.1637 27.1648L8.78772 32.408C7.6058 33.248 6.03788 32.0887 6.49475 30.7126L9.26526 22.3718C9.61138 21.3292 9.23589 20.1831 8.34045 19.5466L1.1344 14.4246C-0.0558609 13.5781 0.54288 11.7022 2.00354 11.7019H11.0045C12.0816 11.7019 13.0381 11.0121 13.3776 9.98999L16.1881 1.5271Z" stroke="#6D6C6C"/>
</svg>
